# xmcd
#
# Track frame offsets: 
#        150
#        11871
#        22268
#        36775
#        46476
#        62453
#        72934
#        84829
#        98654
#        111141
#        121699
#        138979
#        153438
#        164797
#        174414
#        189263
#        200629
#        218271
#        234346
#        250804
#
# Disc length: 3495 seconds
#
# Revision: 0
# Processed by: cddbd v1.5.1PL2 Copyright (c) Steve Scherf et al.
# Submitted via: ExactAudioCopy v0.95b3
#
DISCID=060da514
DTITLE=Dinah Washington - Echoes Of An Era
DYEAR=1900
DGENRE=Blues
TTITLE0=Do Nothing Till you Hear From Me
TTITLE1=Drown In My Own Tears
TTITLE2=Lover Man
TTITLE3=Take Your Shoes Off Baby
TTITLE4=Soulville
TTITLE5=No Hard Feelings
TTITLE6=Call Me Irresponsible
TTITLE7=It's A Mean Old Man's World
TTITLE8=Baby Won't You Please Come Home
TTITLE9=Drinking Again
TTITLE10=The Blues Ain't Nothin' But A Woman Crying for Her Man
TTITLE11=A Stranger On Earth
TTITLE12=Icy Stone
TTITLE13=What Kind Of Fool Am I
TTITLE14=Just Friends
TTITLE15=Fly Me To The Moon
TTITLE16=You've Been A Good Old Wagon
TTITLE17=The Man That Got Away
TTITLE18=I Wanna' Be Around
TTITLE19=The Good Life
EXTD=
EXTT0=
EXTT1=
EXTT2=
EXTT3=
EXTT4=
EXTT5=
EXTT6=
EXTT7=
EXTT8=
EXTT9=
EXTT10=
EXTT11=
EXTT12=
EXTT13=
EXTT14=
EXTT15=
EXTT16=
EXTT17=
EXTT18=
EXTT19=
PLAYORDER=
